<svg xmlns="http://www.w3.org/2000/svg" viewBox="0 0 64 64">
  <!-- Outer circle (robot head) -->
  <circle cx="32" cy="32" r="30" fill="#008080" />
  
  <!-- Eyes -->
  <circle cx="22" cy="28" r="6" fill="white" />
  <circle cx="42" cy="28" r="6" fill="white" />
  <circle cx="22" cy="28" r="3" fill="#20B2AA" />
  <circle cx="42" cy="28" r="3" fill="#20B2AA" />
  
  <!-- Antenna -->
  <line x1="32" y1="2" x2="32" y2="10" stroke="white" stroke-width="4" />
  <circle cx="32" cy="2" r="2" fill="white" />
  
  <!-- Mouth/Speaker -->
  <rect x="24" y="38" width="16" height="8" rx="4" fill="white" />
  <line x1="28" y1="42" x2="36" y2="42" stroke="#008080" stroke-width="2" />
  
  <!-- Chat bubbles -->
  <path d="M50 18 L54 18 Q58 18 58 22 L58 26 Q58 30 54 30 L50 30 Z" fill="white" opacity="0.8" />
  <path d="M14 18 L10 18 Q6 18 6 22 L6 26 Q6 30 10 30 L14 30 Z" fill="white" opacity="0.8" />
</svg>
